<svg width="258" height="107" viewBox="0 0 258 107" fill="none" xmlns="http://www.w3.org/2000/svg">
<path fill-rule="evenodd" clip-rule="evenodd" d="M148.343 64.3967H148.338C147.863 64.3967 147.443 64.5535 147.048 64.8721C146.755 65.1047 146.553 65.4183 146.391 65.7673H146.411C146.573 65.4183 146.775 65.1047 147.064 64.8721C147.458 64.5535 147.878 64.4018 148.343 64.3967Z" fill="#BD0000"/>
<path fill-rule="evenodd" clip-rule="evenodd" d="M148.358 64.3967C148.353 64.3967 148.348 64.3967 148.343 64.3967C148.834 64.4018 149.157 64.5687 149.375 64.9278C149.471 65.0795 149.521 65.3071 149.521 65.5953C149.521 65.6459 149.511 65.7116 149.506 65.7673H149.526C149.526 65.7116 149.536 65.6459 149.536 65.5953C149.536 65.3071 149.491 65.0795 149.395 64.9278C149.177 64.5636 148.849 64.3967 148.358 64.3967Z" fill="#BD0000"/>
<path fill-rule="evenodd" clip-rule="evenodd" d="M0.956665 106.188H4.72918L6.42327 99.1085H12.5523L13.3412 96.0743H7.18688L8.20839 91.523H14.7572L15.5461 87.9832H5.20454L0.956665 106.188Z" fill="#663366"/>
<path fill-rule="evenodd" clip-rule="evenodd" d="M17.8774 106.188L19.0102 101.435C19.6069 98.8607 20.8661 96.58 23.2479 96.58C23.4603 96.58 23.6676 96.6862 23.8244 96.7115L24.7448 93.0654C24.5324 93.0654 24.2998 93.0401 24.0368 93.0401C22.282 93.0401 20.8104 94.274 19.8294 96.044H19.7283C19.8749 95.1792 20.0013 94.36 20.0974 93.5458H16.8458C16.6587 94.5977 16.3704 96.6558 15.9304 98.5118L14.0796 106.188H17.8774Z" fill="#663366"/>
<path fill-rule="evenodd" clip-rule="evenodd" d="M34.6565 102.775C33.6097 103.286 32.4162 103.154 31.0256 103.154C29.9282 103.154 29.0786 102.962 28.6134 102.588C28.3706 102.178 28.2695 101.541 28.2897 101.131C33.4125 101.268 36.6439 100.084 36.8057 96.848C36.9271 94.4055 35.142 93.0401 32.5477 93.0401C27.9155 93.0401 24.8813 97.1261 24.6841 101.06C24.5122 104.494 26.2922 106.188 29.9636 106.188C31.3745 106.188 33.2456 106.026 34.7778 105.566L34.6565 102.775ZM33.2709 96.848C33.2102 98.0516 31.7234 98.1224 28.7954 98.0971C29.114 97.0402 30.1861 96.0743 31.9409 96.0743C32.8056 96.0743 33.3012 96.403 33.2709 96.848Z" fill="#663366"/>
<path fill-rule="evenodd" clip-rule="evenodd" d="M48.0626 102.775C47.0158 103.286 45.8223 103.154 44.4367 103.154C43.3343 103.154 42.4898 102.962 42.0245 102.588C41.7818 102.178 41.6756 101.541 41.6958 101.131C46.8236 101.268 50.05 100.084 50.2169 96.848C50.3382 94.4055 48.5531 93.0401 45.9589 93.0401C41.3216 93.0401 38.2874 97.1261 38.0902 101.06C37.9233 104.494 39.7034 106.188 43.3697 106.188C44.7857 106.188 46.6567 106.026 48.189 105.566L48.0626 102.775ZM46.682 96.848C46.6213 98.0516 45.1346 98.1224 42.2015 98.0971C42.5252 97.0402 43.5922 96.0743 45.347 96.0743C46.2117 96.0743 46.7124 96.403 46.682 96.848Z" fill="#663366"/>
<path fill-rule="evenodd" clip-rule="evenodd" d="M67.5826 106.188C67.6129 104.585 67.9973 102.067 68.3968 100.413L70.02 93.5458C68.9884 93.1969 67.3803 93.0401 65.8329 93.0401C59.5521 93.0401 56.437 97.6925 56.2195 102.052C56.083 104.787 57.5647 106.188 59.8707 106.188C61.3625 106.188 63.0465 105.465 64.3562 103.291H64.4118C64.3107 104.337 64.1893 105.354 64.1236 106.188H67.5826ZM64.9883 98.9669C64.25 102.183 62.743 103.154 61.6204 103.154C60.5736 103.154 60.1185 102.411 60.1791 101.329C60.3005 98.886 62.2323 96.0743 64.6698 96.0743C65.0642 96.0743 65.3727 96.0035 65.6609 95.9327L64.9883 98.9669Z" fill="#663366"/>
<path fill-rule="evenodd" clip-rule="evenodd" d="M70.0554 105.592C70.7836 106.158 72.3108 106.163 73.9038 106.188C77.3071 106.214 79.8761 104.727 80.0278 101.996C80.1138 100.176 78.7029 99.0984 77.3223 98.3752C76.3261 97.8948 75.8254 97.4346 75.8507 96.8986C75.8861 96.1754 76.5638 96.0743 77.56 96.0743C78.6826 96.0743 79.5828 96.2108 80.0986 96.312L81.1201 93.5711C80.5386 93.2222 79.3755 93.0401 77.8836 93.0401C74.5814 93.0401 72.1642 94.7848 72.0276 97.4346C71.9467 99.0731 73.125 100.176 74.5511 100.924C75.7041 101.516 76.0985 101.971 76.0682 102.613C76.0328 103.26 75.4563 103.154 74.4095 103.154C73.1806 103.154 71.8203 102.992 71.1022 102.881L70.0554 105.592Z" fill="#663366"/>
<path fill-rule="evenodd" clip-rule="evenodd" d="M90.2328 106.188L93.2923 93.5458H89.545L86.4653 106.188H90.2328ZM91.9876 92.0287C93.272 92.0287 94.4149 90.9667 94.4857 89.1462C94.5464 87.9123 93.7474 87.4774 92.5691 87.4774C91.3403 87.4774 90.2176 88.2764 90.1519 89.4699C90.0912 90.6734 90.8902 92.0287 91.9876 92.0287Z" fill="#663366"/>
<path fill-rule="evenodd" clip-rule="evenodd" d="M97.4643 106.188L98.7993 100.494C99.4921 97.5965 100.984 96.58 102.213 96.58C103.184 96.58 103.467 96.9947 103.421 97.5965C103.396 98.0819 103.32 98.5927 103.219 99.0478L101.52 106.188H105.293L107.083 98.6989C107.219 98.0516 107.371 97.0857 107.401 96.4991C107.513 94.2184 106.375 93.389 104.281 93.389C102.602 93.389 100.969 94.1678 99.6793 95.8569H99.6287L99.9726 93.5458H96.6451C96.4276 94.628 96.1495 95.9378 95.755 97.465L93.6918 106.188H97.4643Z" fill="#663366"/>
<path fill-rule="evenodd" clip-rule="evenodd" d="M113.697 106.188H117.47L119.169 99.1085H125.293L126.082 96.0743H119.927L120.949 91.523H127.498L128.287 87.9832H117.945L113.697 106.188Z" fill="#663366"/>
<path fill-rule="evenodd" clip-rule="evenodd" d="M130.618 106.188L131.751 101.435C132.347 98.8607 133.607 96.58 135.989 96.58C136.201 96.58 136.408 96.6862 136.565 96.7115L137.485 93.0654C137.273 93.0654 137.04 93.0401 136.777 93.0401C135.023 93.0401 133.551 94.274 132.57 96.044H132.469C132.616 95.1792 132.742 94.36 132.838 93.5458H129.586C129.404 94.5977 129.111 96.6558 128.671 98.5118L126.82 106.188H130.618Z" fill="#663366"/>
<path fill-rule="evenodd" clip-rule="evenodd" d="M147.397 102.775C146.35 103.286 145.157 103.154 143.766 103.154C142.669 103.154 141.819 102.962 141.354 102.588C141.111 102.178 141.01 101.541 141.03 101.131C146.153 101.268 149.384 100.084 149.546 96.848C149.668 94.4055 147.883 93.0401 145.288 93.0401C140.656 93.0401 137.622 97.1261 137.425 101.06C137.253 104.494 139.038 106.188 142.704 106.188C144.115 106.188 145.991 106.026 147.518 105.566L147.397 102.775ZM146.011 96.848C145.951 98.0516 144.464 98.1224 141.536 98.0971C141.855 97.0402 142.927 96.0743 144.681 96.0743C145.546 96.0743 146.042 96.403 146.011 96.848Z" fill="#663366"/>
<path fill-rule="evenodd" clip-rule="evenodd" d="M160.803 102.775C159.756 103.286 158.563 103.154 157.177 103.154C156.075 103.154 155.23 102.962 154.765 102.588C154.522 102.178 154.416 101.541 154.436 101.131C159.564 101.268 162.791 100.084 162.957 96.848C163.079 94.4055 161.294 93.0401 158.699 93.0401C154.062 93.0401 151.028 97.1261 150.831 101.06C150.664 104.494 152.444 106.188 156.11 106.188C157.526 106.188 159.397 106.026 160.93 105.566L160.803 102.775ZM159.423 96.848C159.362 98.0516 157.875 98.1224 154.942 98.0971C155.266 97.0402 156.333 96.0743 158.088 96.0743C158.952 96.0743 159.453 96.403 159.423 96.848Z" fill="#663366"/>
<path fill-rule="evenodd" clip-rule="evenodd" d="M175.792 87.4774L174.371 93.2222C173.855 93.0098 173.183 93.0401 172.657 93.0401C167.812 93.0401 164.384 97.1868 164.156 101.677C164.004 104.843 165.693 106.188 167.868 106.188C169.39 106.188 170.993 105.516 172.207 103.776H172.257L171.969 106.188H175.398C175.554 104.671 175.883 102.866 176.252 101.217L179.534 87.4774H175.792ZM172.839 99.8266C172.247 102.32 170.851 103.154 169.749 103.154C168.652 103.154 168.04 102.39 168.116 101.03C168.242 98.5118 169.972 96.0743 172.222 96.0743C172.854 96.0743 173.395 96.1704 173.693 96.312L172.839 99.8266Z" fill="#663366"/>
<path fill-rule="evenodd" clip-rule="evenodd" d="M184.394 106.188C188.794 106.188 192.187 102.856 192.425 98.3196C192.571 95.3157 190.7 93.0401 187.246 93.0401C182.685 93.0401 179.413 96.7317 179.185 101.192C179.029 104.439 181.122 106.188 184.394 106.188ZM184.986 103.154C183.701 103.154 182.993 102.335 183.069 101.111C183.17 99.0731 184.429 96.0743 186.599 96.0743C188.096 96.0743 188.556 97.2222 188.495 98.3499C188.384 100.575 187.029 103.154 184.986 103.154Z" fill="#663366"/>
<path fill-rule="evenodd" clip-rule="evenodd" d="M197.112 106.188L198.478 100.413C199.049 97.8392 200.475 96.0743 201.755 96.0743C202.675 96.0743 202.928 96.7469 202.882 97.6268C202.857 98.0819 202.756 98.5927 202.65 99.0984L200.961 106.188H204.602L205.967 100.388C206.594 97.733 207.939 96.0743 209.194 96.0743C210.058 96.0743 210.417 96.6912 210.377 97.5712C210.352 98.0819 210.245 98.6432 210.114 99.154L208.475 106.188H212.142L213.907 98.6989C214.043 98.0263 214.2 96.9795 214.225 96.4435C214.336 94.2184 213.249 93.0401 211.287 93.0401C209.608 93.0401 207.975 93.7986 206.736 95.3967C206.69 94.2437 205.866 93.0401 203.823 93.0401C202.169 93.0401 200.592 93.7885 199.327 95.4826H199.277L199.616 93.5458H196.369C196.157 94.628 195.899 95.9378 195.504 97.465L193.471 106.188H197.112Z" fill="#663366"/>
<path d="M161.251 72.2582C161.457 72.7859 161.662 73.3128 161.876 73.8281C162.205 74.5283 162.586 75.1985 163.043 75.8241C165.515 79.1844 169.655 81.0243 174.911 81.4824H180.565C182.353 81.3429 184.226 81.0829 186.168 80.7031C189.517 80.0483 193.066 79.0424 196.753 77.6981C199.546 76.6799 202.415 75.4752 205.328 74.0749C211.67 71.0345 218.222 67.1132 224.65 62.3809C226.768 60.8237 228.799 59.2259 230.749 57.6011C232.537 56.1137 234.252 54.6031 235.89 53.0758C240.462 48.6699 243.913 44.1951 245.868 40.266C247.903 36.1744 248.31 32.676 246.642 30.4722C245.62 29.1194 243.909 28.3945 241.706 28.2239C251.628 20.7788 257.411 11.7476 255.336 6.05344C254.678 4.23623 253.228 2.88046 251.149 2.13072C250.226 1.79848 249.186 1.588 248.053 1.49219H244.999C240.736 1.79973 234.535 3.32654 229.274 5.90456" stroke="#663266" stroke-width="2.5285"/>
<path fill-rule="evenodd" clip-rule="evenodd" d="M23.0434 3.47029L5.45459 80.2101C5.45966 80.2101 51.7235 80.2101 51.7336 80.2101C72.0801 80.2101 133.104 80.2101 133.104 80.2101H175.424C170.383 79.7701 166.402 78.0002 164.03 74.7739C163.591 74.1771 163.227 73.5343 162.908 72.8617C162.706 72.3662 162.516 71.8661 162.324 71.3605C161.818 69.7523 161.616 67.9678 161.707 66.0663C161.96 60.7666 164.447 54.4626 168.756 47.8611C173.332 40.8456 179.965 33.4926 188.178 26.6692C190.018 25.141 191.922 23.6319 193.914 22.1653C196.377 20.3535 198.859 18.6847 201.342 17.1242C210.49 11.3647 219.615 7.3347 227.701 5.28766C219.974 7.80853 211.293 12.0882 202.716 17.9143C202.408 18.1226 202.103 18.3361 201.8 18.5465C197.041 21.8436 192.73 25.3453 188.968 28.8816C176.861 40.265 170.462 52.0604 173.37 58.9708C173.577 59.4461 173.825 59.9 174.113 60.3299C177.238 64.9266 184.983 65.7212 194.799 63.2534C195.467 63.0866 196.134 62.8975 196.822 62.7003C199.957 61.7951 203.286 60.5725 206.715 59.0656C207.539 58.7015 208.372 58.3273 209.212 57.9277C209.298 57.8873 209.378 57.8469 209.464 57.8014C220.286 52.4243 228.603 46.2372 230.403 42.5198C230.798 41.7111 230.893 41.0217 230.625 40.4811C229.34 37.8768 220.352 39.6362 209.464 44.3529C208.59 44.7322 207.705 45.1225 206.809 45.5382C207.538 44.8621 208.296 44.1833 209.069 43.5153C210.303 42.4523 211.581 41.4129 212.941 40.3863C215.07 38.7742 217.222 37.3167 219.341 36.0247C229.263 28.5393 234.279 21.4586 233.232 18.8309C233.035 18.3358 232.615 17.9953 231.968 17.7878C229.9 17.1299 226.125 17.9152 221.538 19.7949C217.755 21.3464 213.411 23.6474 209.006 26.5112L208.406 26.9063L208.295 26.9695L206.177 28.376L207.394 26.1478C209.2 22.843 212.14 19.3949 215.801 16.1918C218.487 13.8498 221.554 11.6433 224.857 9.71252C226.106 8.98125 227.353 8.30206 228.602 7.68969C229.881 7.0646 231.161 6.50911 232.41 6.01454C236.039 4.5794 240.026 2.76704 243.047 2.52991C242.772 2.52991 234.038 3.47029 234.038 3.47029H205.435H79.3101H23.0434ZM160.048 3.58096C159.553 11.1447 161.019 22.2232 164.347 34.5234C164.938 36.712 165.582 38.9394 166.29 41.1923C166.73 42.5835 167.184 43.9529 167.649 45.3011C167.376 45.7026 167.101 46.1016 166.843 46.5021C162.692 52.8648 160.265 58.8779 159.653 64.1068C157.898 58.2305 156.577 51.7941 155.829 44.9692C155.616 43.0137 155.45 41.08 155.339 39.1695C154.52 25.2916 156.331 12.7113 160.048 3.58096ZM77.1925 13.4262C77.2871 13.424 77.3805 13.4262 77.4769 13.4262H96.172C97.77 13.4262 99.0058 13.7257 99.8857 14.327C100.76 14.9318 101.089 15.7142 100.881 16.6659L98.6531 26.7324H92.0631L94.2281 16.9346H77.7298L71.772 43.8629L69.6227 53.6135H86.1053L86.1212 53.5504L89.424 38.6322H81.6805L82.4233 35.2661H96.7567L92.6479 53.8822C92.5923 54.1472 92.4949 54.3872 92.3634 54.6249C92.0246 55.2419 91.4336 55.7703 90.6093 56.2053C89.4664 56.807 88.0985 57.106 86.5004 57.106H67.8212C66.2232 57.106 64.9874 56.807 64.1074 56.2053C63.2326 55.6035 62.8995 54.8349 63.1119 53.8822L71.3453 16.6659C71.5577 15.7142 72.2201 14.9318 73.368 14.327C73.4085 14.3052 73.4541 14.3003 73.4945 14.2796C74.5423 13.7548 75.7719 13.4598 77.1925 13.4262ZM106.491 13.4262H130.022C131.6 13.4262 132.84 13.7257 133.72 14.327C134.605 14.9318 134.944 15.7142 134.732 16.6659L130.338 36.5146C130.131 37.4602 129.453 38.2318 128.3 38.8376C127.147 39.4455 125.79 39.7542 124.207 39.7542H107.108L103.805 54.6565L103.268 57.106H96.8199L97.3098 54.8936L106.491 13.4262ZM138.998 13.4262H145.446L138.145 46.4073L136.549 53.6135H151.973C152.135 54.7963 152.324 55.9581 152.526 57.106H129.327L131.16 48.8252L138.998 13.4262ZM112.165 16.9346L107.882 36.2459H123.954L128.221 16.9346H112.165ZM77.8939 62.5127C77.957 62.5105 78.02 62.5127 78.0835 62.5127C78.832 62.5127 79.4856 62.6441 80.0115 62.892C80.5729 63.155 80.9743 63.5456 81.1967 64.0614C81.4142 64.5621 81.471 65.1303 81.3548 65.7523L81.3074 65.9894H79.4585L79.4742 65.7682C79.522 65.3335 79.4681 64.9918 79.3004 64.7568C79.2785 64.7273 79.2468 64.6884 79.2213 64.6619C79.1797 64.6193 79.117 64.5707 79.0634 64.5355C78.8046 64.3725 78.4 64.2826 77.8781 64.2826C77.1853 64.2826 76.6676 64.4033 76.3136 64.6461C75.9697 64.8838 75.7522 65.1493 75.6815 65.4679C75.6106 65.7915 75.7269 65.9616 75.8079 66.0526C75.8104 66.0551 75.8206 66.0656 75.8237 66.0684C75.9262 66.1556 76.282 66.3605 77.3882 66.6215C78.3895 66.8643 79.0526 67.0823 79.4268 67.2694C79.9932 67.5576 80.3889 67.9313 80.5962 68.3914C80.8036 68.8466 80.8491 69.3794 80.7226 69.9559C80.5962 70.5173 80.3099 71.035 79.8851 71.5205C79.4654 72.0059 78.9313 72.3902 78.2889 72.6583C77.6518 72.9213 76.9527 73.0691 76.2346 73.0691C75.3243 73.0691 74.5935 72.9314 74.0221 72.6583C73.4254 72.3751 72.9949 71.9282 72.7421 71.3466C72.4994 70.7803 72.4475 70.1374 72.584 69.4345L72.6315 69.2132H74.4489L74.433 69.4345C74.3875 69.8542 74.4324 70.193 74.5436 70.4459C74.6499 70.6886 74.8521 70.8896 75.1757 71.0463C75.5197 71.2132 75.9495 71.2992 76.44 71.2992C76.88 71.2992 77.282 71.2253 77.6411 71.0938C77.995 70.9673 78.2764 70.8005 78.4786 70.5881C78.6759 70.3757 78.7915 70.1512 78.8421 69.9086C78.8927 69.6911 78.8806 69.5071 78.7947 69.3554C78.6986 69.1936 78.5083 69.0501 78.2099 68.9288L76.6612 68.4704C75.7965 68.253 75.2143 68.0456 74.8755 67.8383C74.4153 67.5653 74.0835 67.215 73.9115 66.7953C73.7396 66.3806 73.7213 65.9211 73.8325 65.4204C73.9488 64.8844 74.2073 64.3743 74.6069 63.9192C75.0115 63.459 75.5336 63.098 76.1556 62.8603C76.7055 62.6541 77.2842 62.5332 77.8939 62.5127ZM94.4872 62.5443C94.5872 62.5365 94.6812 62.5443 94.7874 62.5443L95.9252 62.6707L96.3045 62.7023L95.7514 64.1088L95.6408 64.33L94.7716 64.251C94.5149 64.251 94.3264 64.2906 94.2026 64.3775C94.1945 64.3836 94.1787 64.4024 94.1711 64.409C94.1545 64.4236 94.1266 64.4489 94.1079 64.4723C94.0318 64.5721 93.9392 64.7504 93.8709 65.0728C93.8709 65.0728 93.838 65.2093 93.8077 65.3257C94.2071 65.3257 95.1667 65.3257 95.1667 65.3257L94.819 66.8902C94.819 66.8902 93.8253 66.8902 93.4916 66.8902C93.3904 67.3453 92.1483 72.9111 92.1483 72.9111H90.3151C90.3151 72.9111 91.5067 67.5627 91.6584 66.8902C91.3499 66.8902 90.5996 66.8902 90.5996 66.8902L90.9472 65.3257C90.9472 65.3257 91.702 65.3257 91.9903 65.3257C92.0408 65.1082 92.1167 64.8358 92.1167 64.8358C92.2279 64.33 92.3442 63.9666 92.4959 63.7137C92.7034 63.3648 92.996 63.0728 93.3651 62.8603C93.6692 62.6837 94.0538 62.578 94.4872 62.5443ZM98.8646 62.6233C98.8646 62.6233 98.3854 64.7795 98.2641 65.3257C98.6181 65.3257 99.4493 65.3257 99.4493 65.3257L99.1017 66.8902C99.1017 66.8902 98.2299 66.8902 97.9164 66.8902C97.8204 67.325 97.0631 70.6987 97.0631 70.6987C97.0631 70.6987 96.9999 71.1039 96.9999 71.2202C97 71.2241 96.9995 71.2331 96.9999 71.236V71.2518H97.0156L97.2053 71.2676L98.0745 71.2044L97.9796 72.6109L97.9954 72.8637L96.747 73.0059C96.2515 73.0059 95.8879 72.9251 95.625 72.7531C95.3469 72.571 95.185 72.3296 95.1193 72.0262C95.1092 71.9705 95.0877 71.8896 95.0877 71.7733C95.0877 71.5457 95.1306 71.1608 95.2773 70.4932C95.2773 70.4932 95.9416 67.5172 96.0832 66.8902C95.8456 66.8902 95.2141 66.8902 95.2141 66.8902L95.5618 65.3257C95.5618 65.3257 96.1781 65.3257 96.4309 65.3257C96.5119 64.9615 96.7944 63.7137 96.7944 63.7137L98.2641 62.9393L98.8646 62.6233ZM40.6302 62.6865H47.7416L47.3465 64.4565C47.3465 64.4565 42.6024 64.4565 42.1473 64.4565C42.0664 64.8156 41.7421 66.2694 41.6258 66.7953C42.2832 66.7953 46.1297 66.7953 46.1297 66.7953L45.7346 68.5653C45.7346 68.5653 41.6858 68.5653 41.2307 68.5653C41.1346 69.0053 40.2667 72.9111 40.2667 72.9111H38.3545L40.6302 62.6865ZM50.1595 65.1835C50.2308 65.1747 50.3088 65.1835 50.3807 65.1835C50.8358 65.1835 51.2562 65.3219 51.6608 65.6101L51.9136 65.7839L50.9338 67.3958L50.6651 67.2062C50.4679 67.0798 50.2555 67.0166 50.033 67.0166C49.8409 67.0166 49.662 67.0849 49.4799 67.2062C49.2878 67.3327 49.1272 67.5002 49.0059 67.7277C48.7935 68.1171 48.6379 68.5532 48.5317 69.0235L47.6784 72.9111H45.8452L47.5362 65.3257H49.2429C49.2429 65.3257 49.1841 65.5557 49.1639 65.6416C49.2448 65.581 49.3301 65.4976 49.4009 65.4521C49.6459 65.3059 49.9046 65.2147 50.1595 65.1835ZM55.5957 65.1835C55.7061 65.175 55.8147 65.1835 55.9276 65.1835C56.9592 65.1835 57.7399 65.545 58.2506 66.258C58.5692 66.7182 58.7406 67.2871 58.7406 67.9648C58.7406 68.3389 58.6944 68.7417 58.5983 69.1816L58.4561 69.7347C58.4561 69.7347 53.8201 69.7347 53.3043 69.7347C53.2941 69.8409 53.2885 69.9547 53.2885 70.0508C53.2885 70.4452 53.3694 70.7556 53.5413 70.9832C53.623 71.0944 53.7177 71.1946 53.8258 71.2676C54.0294 71.4005 54.2924 71.473 54.6001 71.473C54.9743 71.473 55.303 71.37 55.6115 71.1728C55.9048 70.9857 56.1855 70.6867 56.4333 70.272H58.3929L58.2191 70.6512C57.8448 71.4098 57.3227 72.0015 56.6703 72.4213C56.018 72.841 55.2386 73.0691 54.3789 73.0691C53.2613 73.0691 52.4294 72.7076 51.9136 71.9946C51.4028 71.2967 51.2929 70.332 51.5659 69.1184C51.839 67.8844 52.3839 66.8983 53.1778 66.2106C53.8895 65.5935 54.697 65.2513 55.5957 65.1835ZM63.8292 65.1835C63.9395 65.175 64.0482 65.1835 64.161 65.1835C65.1927 65.1835 65.9733 65.545 66.4841 66.258C66.8027 66.7182 66.9739 67.2871 66.9739 67.9648C66.9739 68.3339 66.9278 68.7308 66.8317 69.1657L66.6895 69.7347C66.6895 69.7347 62.0535 69.7347 61.5377 69.7347C61.5326 69.8055 61.5269 69.8693 61.5219 69.9401C61.5181 69.9666 61.5236 70.007 61.5219 70.0349C61.5217 70.0395 61.5219 70.0464 61.5219 70.0508C61.5219 70.1266 61.5326 70.2012 61.5377 70.272C61.563 70.5603 61.6382 70.8011 61.7747 70.9832C61.8008 71.0186 61.8252 71.0622 61.8537 71.0938C62.0854 71.3416 62.4132 71.473 62.8335 71.473C63.2078 71.473 63.5415 71.37 63.8449 71.1728C64.1383 70.9857 64.4189 70.6867 64.6667 70.272H66.642L66.4524 70.6512C66.0782 71.4098 65.5561 72.0015 64.9038 72.4213C64.2514 72.841 63.472 73.0691 62.6123 73.0691C61.4947 73.0691 60.6628 72.7076 60.147 71.9946C59.8133 71.5394 59.6571 70.9597 59.6571 70.272C59.6571 70.1658 59.6628 70.0514 59.6729 69.9401C59.6932 69.6772 59.7336 69.4117 59.7994 69.1184C60.0724 67.8895 60.6015 66.8983 61.3955 66.2106C62.1071 65.5935 62.9304 65.2513 63.8292 65.1835ZM86.2537 65.1835C86.3667 65.1748 86.4705 65.1835 86.5856 65.1835C87.6375 65.1835 88.446 65.5393 88.9718 66.2422C89.4928 66.9451 89.6192 67.8933 89.3512 69.0867C89.1438 70.0173 88.8442 70.7689 88.4345 71.315C88.0249 71.8612 87.5029 72.3074 86.8858 72.6109C86.274 72.9143 85.6261 73.0691 84.9737 73.0691C83.9016 73.0691 83.1032 72.7025 82.5874 71.9946C82.2537 71.5444 82.0817 70.9648 82.0817 70.272C82.0817 69.8978 82.1228 69.5002 82.224 69.0552C82.5274 67.6999 83.1468 66.6677 84.0571 66.0052C84.7252 65.5228 85.4632 65.2442 86.2537 65.1835ZM114.02 65.1835C114.153 65.1752 114.277 65.1835 114.415 65.1835C115.052 65.1835 115.553 65.2479 115.932 65.4047C116.337 65.5665 116.623 65.7953 116.785 66.0684C116.942 66.3262 117.022 66.643 117.022 67.0324L116.833 68.186L116.485 69.7505C116.187 71.0855 116.121 71.5862 116.106 71.7733C116.091 72.0262 116.114 72.2726 116.185 72.5003L116.311 72.9111H114.446L114.367 72.6741C114.337 72.5629 114.346 72.4212 114.336 72.2948C113.982 72.5122 113.627 72.7051 113.309 72.8163C112.838 72.9782 112.35 73.0691 111.855 73.0691C110.995 73.0691 110.359 72.8453 109.974 72.4054C109.681 72.0818 109.548 71.6861 109.548 71.236C109.548 71.0641 109.57 70.8858 109.611 70.6987C109.697 70.3143 109.853 69.9585 110.101 69.6398C110.343 69.3263 110.63 69.0685 110.954 68.8813C111.268 68.6942 111.617 68.5615 111.981 68.4704L113.103 68.2808C113.968 68.1797 114.613 68.0539 115.079 67.9173C115.089 67.8668 115.11 67.8067 115.11 67.8067C115.184 67.4813 115.174 67.2368 115.094 67.1114C115.089 67.1033 115.069 67.0867 115.063 67.0798C115.046 67.0616 115.02 67.033 115 67.0166C114.809 66.8661 114.485 66.7953 114.051 66.7953C113.561 66.7953 113.198 66.8756 112.945 67.0324C112.697 67.1891 112.468 67.4761 112.266 67.8858H110.353L110.527 67.5065C110.755 66.9806 111.026 66.5443 111.365 66.2106C111.704 65.8768 112.161 65.6183 112.692 65.4362C113.099 65.3019 113.544 65.2128 114.02 65.1835ZM122.032 65.1835C122.103 65.1747 122.181 65.1835 122.253 65.1835C122.713 65.1835 123.145 65.3219 123.549 65.6101L123.786 65.7839L122.806 67.3958L122.538 67.2062C122.34 67.0798 122.139 67.0166 121.921 67.0166C121.729 67.0166 121.539 67.0849 121.352 67.2062C121.16 67.3327 121.021 67.5002 120.894 67.7277C120.687 68.1171 120.526 68.5532 120.42 69.0235L119.551 72.9111H117.718L119.409 65.3257H121.115C121.115 65.3257 121.072 65.5557 121.052 65.6416C121.133 65.581 121.213 65.4976 121.289 65.4521C121.53 65.3059 121.777 65.2147 122.032 65.1835ZM127.452 65.1835C127.563 65.175 127.671 65.1835 127.784 65.1835C128.816 65.1835 129.602 65.545 130.107 66.258C130.431 66.7182 130.597 67.2871 130.597 67.9648C130.597 68.3389 130.535 68.7417 130.439 69.1816L130.313 69.7347C130.313 69.7347 125.672 69.7347 125.161 69.7347C125.151 69.8409 125.129 69.9547 125.129 70.0508C125.129 70.4452 125.215 70.7556 125.382 70.9832C125.408 71.0186 125.448 71.0622 125.477 71.0938C125.494 71.1115 125.523 71.1406 125.54 71.157C125.766 71.3625 126.074 71.473 126.457 71.473C126.831 71.473 127.16 71.37 127.468 71.1728C127.762 70.9857 128.037 70.6867 128.29 70.272H130.265L130.076 70.6512C129.701 71.4098 129.174 72.0015 128.527 72.4213C127.87 72.841 127.1 73.0691 126.236 73.0691C125.118 73.0691 124.302 72.7076 123.786 71.9946C123.275 71.2967 123.155 70.332 123.423 69.1184C123.696 67.8844 124.225 66.8983 125.019 66.2106C125.735 65.5935 126.555 65.2513 127.452 65.1835ZM99.7812 65.3257H101.662C101.662 65.3257 101.894 69.827 101.899 69.8927C101.975 69.7315 102.034 69.5959 102.041 69.5767L104.111 65.3257H105.834C105.834 65.3257 105.992 69.7726 105.992 69.7979C106.042 69.7069 108.346 65.3257 108.346 65.3257H110.211L106.102 72.9111H104.412C104.412 72.9111 104.248 68.7979 104.238 68.5653C103.54 69.9965 102.12 72.9111 102.12 72.9111H100.382L99.7812 65.3257ZM55.6273 66.7637C55.1917 66.7821 54.7961 66.9391 54.4263 67.2378C54.133 67.4705 53.9351 67.7897 53.7784 68.1386H56.8916C56.8966 68.083 56.9074 68.0153 56.9074 67.9648C56.9074 67.6765 56.8562 67.4527 56.7651 67.301C56.5427 66.937 56.2127 66.7637 55.7221 66.7637C55.6927 66.7637 55.6564 66.7625 55.6273 66.7637ZM63.8607 66.7637C63.4251 66.7821 63.0295 66.9391 62.6597 67.2378C62.3664 67.4705 62.1736 67.7897 62.0118 68.1386H65.125C65.13 68.083 65.1408 68.0153 65.1408 67.9648C65.1408 67.6765 65.0947 67.4527 64.9986 67.301C64.9544 67.2271 64.8946 67.1535 64.8406 67.0956C64.6294 66.8774 64.3388 66.7637 63.9556 66.7637C63.9261 66.7637 63.8898 66.7625 63.8607 66.7637ZM127.547 66.7637C127.099 66.7775 126.681 66.9292 126.299 67.2378C126.011 67.4705 125.813 67.7897 125.651 68.1386H128.748C128.753 68.083 128.764 68.0153 128.764 67.9648C128.764 67.6765 128.718 67.4527 128.622 67.301C128.404 66.942 128.069 66.7688 127.579 66.7637C127.564 66.7639 127.562 66.7633 127.547 66.7637ZM86.1431 66.7953C85.7251 66.8449 85.3364 67.0358 84.9737 67.3642C84.5388 67.7587 84.2234 68.3781 84.0413 69.1974C83.9655 69.5412 83.9307 69.8352 83.9307 70.0981C83.9307 70.4572 83.9996 70.7391 84.1362 70.9515C84.1725 71.0061 84.2207 71.0636 84.2626 71.1095C84.4874 71.3482 84.8013 71.473 85.1949 71.473C85.7057 71.473 86.1558 71.2828 86.5856 70.8883C87.0205 70.4888 87.3309 69.863 87.518 69.0235C87.6899 68.2549 87.6659 67.681 87.4231 67.3168C87.1906 66.9629 86.8504 66.7953 86.3802 66.7953C86.3004 66.7953 86.2206 66.7861 86.1431 66.7953ZM114.699 69.5608C114.27 69.6772 113.788 69.7751 113.151 69.8612C112.675 69.9319 112.336 70.0065 112.139 70.0824C111.967 70.1532 111.829 70.2512 111.713 70.3826C111.601 70.509 111.527 70.6417 111.491 70.7935C111.481 70.8542 111.475 70.9168 111.475 70.9673C111.475 70.9715 111.475 70.9791 111.475 70.9832C111.476 70.9952 111.474 71.0189 111.475 71.0306C111.479 71.0534 111.485 71.0882 111.491 71.1095C111.494 71.1167 111.504 71.1343 111.507 71.1412C111.513 71.1548 111.516 71.1756 111.523 71.1886C111.53 71.2014 111.546 71.2237 111.554 71.236C111.568 71.2542 111.586 71.2821 111.602 71.2992C111.728 71.4408 111.981 71.5046 112.345 71.5046C112.744 71.5046 113.128 71.4288 113.483 71.2518C113.831 71.0798 114.113 70.8232 114.32 70.5249C114.472 70.3125 114.593 69.9856 114.699 69.5608ZM18.1716 56.89L60.5838 13.1H67.5099L57.2694 56.89H51.5726L54.4803 44.2847H36.7004L24.6179 56.89H18.1716ZM41.0211 39.7743H55.5629L58.2459 28.782C59.3287 24.4209 60.371 20.7867 61.3727 17.8793C59.3707 20.3884 56.7221 23.3655 53.4267 26.8105L41.0211 39.7743Z" fill="#663366"/>
</svg>
