<svg width="512" height="512" viewBox="0 0 512 512" fill="none" xmlns="http://www.w3.org/2000/svg">
<rect width="512" height="512" rx="256" fill="#EFEDDB"/>
<path d="M273.462 237.164C275.468 237.949 277.474 238.734 279.541 239.542C293.936 245.266 308.114 251.762 322.26 258.555C366.538 279.582 408.626 291.241 455.56 291.959C456.384 297.61 457.207 303.26 458.055 309.082C439.563 326.007 404.607 316.073 383.22 312.507C371.351 309.166 359.614 305.173 348.131 299.838C341.68 298.461 338.487 300.903 332.55 304.587C248.298 347.812 151.798 334.445 71.621 284.735C66.5196 281.526 61.4584 278.281 56.4396 274.836C56.4396 270.315 56.4396 265.795 56.4396 261.137C125.967 203.726 196.369 206.703 273.462 237.164Z" fill="#0A0A0A"/>
<path d="M168.848 167.601C170.756 167.592 172.664 167.583 174.63 167.574C205.314 167.558 233.812 171.032 263.484 182.37C266.599 183.478 269.715 184.586 272.926 185.728C291.027 192.47 308.744 200.756 326.509 208.978C361.259 224.698 394.619 234.015 431.083 237.592C433.934 237.888 436.784 238.184 439.721 238.489C446.663 239.207 453.606 239.906 460.549 240.589C460.549 245.11 460.549 249.63 460.549 254.288C446.857 262.203 435.195 262.242 420.637 261.137C417.351 260.903 414.065 260.669 410.679 260.428C369.348 256.437 330.074 239.588 291.079 221.111C226.591 190.627 153.128 182.168 88.2055 213.727C80.6242 216.939 76.4347 216.229 68.9121 213.192C69.3798 205.272 69.3798 205.272 71.4066 196.068C80.3936 187.236 89.5554 182.81 100.093 178.517C102.846 177.378 105.598 176.239 108.434 175.066C128.486 167.502 148.2 167.693 168.848 167.601Z" fill="#0B0B0B"/>
<path d="M138.758 244.014C141.195 250.035 143.629 256.058 146.037 262.1C151.13 273.205 157.27 276.841 166.295 280.093C178.987 283.177 188.055 281.499 199.299 272.749C206.578 264.718 209.709 255.569 213.593 244.014C230.355 245.947 245.523 250.454 261.613 257.07C263.888 257.985 266.164 258.899 268.508 259.841C286.006 266.901 303.464 274.153 320.857 281.685C314.099 290.963 307.021 291.528 297.939 293.671C296.152 294.105 294.366 294.539 292.525 294.986C287.007 296.302 281.483 297.562 275.956 298.808C272.831 299.528 269.705 300.247 266.485 300.989C210.733 312.568 136.166 312.135 86.3736 271.411C86.3736 268.021 86.3736 264.63 86.3736 261.137C91.5136 258.337 96.6597 255.559 101.808 252.789C106.106 250.465 106.106 250.465 110.49 248.094C128.43 239.287 128.43 239.287 138.758 244.014Z" fill="#EFEDDB"/>
</svg>
